<mxfile host="app.diagrams.net" modified="2021-01-14T01:47:45.119Z" agent="5.0 (Macintosh; Intel Mac OS X 11_0_1) AppleWebKit/537.36 (KHTML, like Gecko) Chrome/87.0.4280.141 Safari/537.36" etag="T2v8QBhXNAkRM0Qh1LJ5" version="14.2.2" type="github">
  <diagram id="kgpKYQtTHZ0yAKxKKP6v" name="Page-1">
    <mxGraphModel dx="946" dy="646" grid="1" gridSize="10" guides="1" tooltips="1" connect="1" arrows="1" fold="1" page="1" pageScale="1" pageWidth="850" pageHeight="1100" math="0" shadow="0">
      <root>
        <mxCell id="0" />
        <mxCell id="1" parent="0" />
        <mxCell id="6GWNNWpkVCc8jNCQC1K5-13" value="" style="edgeStyle=orthogonalEdgeStyle;curved=0;rounded=1;sketch=1;orthogonalLoop=1;jettySize=auto;html=1;strokeColor=#FF6392;fillColor=#FFE45E;fontSize=17;fontColor=#5AA9E6;" edge="1" parent="1" source="6GWNNWpkVCc8jNCQC1K5-11" target="6GWNNWpkVCc8jNCQC1K5-12">
          <mxGeometry relative="1" as="geometry" />
        </mxCell>
        <mxCell id="6GWNNWpkVCc8jNCQC1K5-11" value="开始循环" style="shape=ext;rounded=1;html=1;whiteSpace=wrap;dashed=1;dashPattern=1 4;sketch=1;strokeColor=#FF6392;fillColor=#FFE45E;fontSize=17;fontColor=#5AA9E6;" vertex="1" parent="1">
          <mxGeometry x="295" y="245" width="100" height="50" as="geometry" />
        </mxCell>
        <mxCell id="6GWNNWpkVCc8jNCQC1K5-16" value="" style="edgeStyle=orthogonalEdgeStyle;curved=0;rounded=1;sketch=1;orthogonalLoop=1;jettySize=auto;html=1;strokeColor=#FF6392;fillColor=#FFE45E;fontSize=17;fontColor=#5AA9E6;" edge="1" parent="1" source="6GWNNWpkVCc8jNCQC1K5-12" target="6GWNNWpkVCc8jNCQC1K5-15">
          <mxGeometry relative="1" as="geometry" />
        </mxCell>
        <mxCell id="6GWNNWpkVCc8jNCQC1K5-12" value="&lt;div style=&quot;line-height: 18px&quot;&gt;&lt;font face=&quot;helvetica&quot;&gt;旧头==新头&lt;/font&gt;&lt;/div&gt;" style="shape=ext;rounded=1;html=1;whiteSpace=wrap;dashed=1;dashPattern=1 4;sketch=1;strokeColor=#FF6392;fillColor=#FFE45E;fontSize=17;fontColor=#5AA9E6;" vertex="1" parent="1">
          <mxGeometry x="290" y="100" width="110" height="40" as="geometry" />
        </mxCell>
        <mxCell id="6GWNNWpkVCc8jNCQC1K5-18" value="" style="edgeStyle=orthogonalEdgeStyle;curved=0;rounded=1;sketch=1;orthogonalLoop=1;jettySize=auto;html=1;strokeColor=#FF6392;fillColor=#FFE45E;fontSize=17;fontColor=#5AA9E6;" edge="1" parent="1" source="6GWNNWpkVCc8jNCQC1K5-15" target="6GWNNWpkVCc8jNCQC1K5-17">
          <mxGeometry relative="1" as="geometry" />
        </mxCell>
        <mxCell id="6GWNNWpkVCc8jNCQC1K5-15" value="&lt;div style=&quot;line-height: 18px&quot;&gt;&lt;font face=&quot;helvetica&quot;&gt;旧尾==旧尾&lt;/font&gt;&lt;/div&gt;" style="shape=ext;rounded=1;html=1;whiteSpace=wrap;dashed=1;dashPattern=1 4;sketch=1;strokeColor=#FF6392;fillColor=#FFE45E;fontSize=17;fontColor=#5AA9E6;" vertex="1" parent="1">
          <mxGeometry x="470" y="100" width="110" height="40" as="geometry" />
        </mxCell>
        <mxCell id="6GWNNWpkVCc8jNCQC1K5-20" value="" style="edgeStyle=orthogonalEdgeStyle;curved=0;rounded=1;sketch=1;orthogonalLoop=1;jettySize=auto;html=1;strokeColor=#FF6392;fillColor=#FFE45E;fontSize=17;fontColor=#5AA9E6;" edge="1" parent="1" source="6GWNNWpkVCc8jNCQC1K5-17" target="6GWNNWpkVCc8jNCQC1K5-19">
          <mxGeometry relative="1" as="geometry" />
        </mxCell>
        <mxCell id="6GWNNWpkVCc8jNCQC1K5-17" value="&lt;div style=&quot;line-height: 18px&quot;&gt;&lt;font face=&quot;helvetica&quot;&gt;旧头==新尾&lt;/font&gt;&lt;/div&gt;" style="shape=ext;rounded=1;html=1;whiteSpace=wrap;dashed=1;dashPattern=1 4;sketch=1;strokeColor=#FF6392;fillColor=#FFE45E;fontSize=17;fontColor=#5AA9E6;" vertex="1" parent="1">
          <mxGeometry x="660" y="100" width="110" height="40" as="geometry" />
        </mxCell>
        <mxCell id="6GWNNWpkVCc8jNCQC1K5-22" value="" style="edgeStyle=orthogonalEdgeStyle;curved=0;rounded=1;sketch=1;orthogonalLoop=1;jettySize=auto;html=1;strokeColor=#FF6392;fillColor=#FFE45E;fontSize=17;fontColor=#5AA9E6;" edge="1" parent="1" source="6GWNNWpkVCc8jNCQC1K5-19" target="6GWNNWpkVCc8jNCQC1K5-21">
          <mxGeometry relative="1" as="geometry" />
        </mxCell>
        <mxCell id="6GWNNWpkVCc8jNCQC1K5-19" value="&lt;div style=&quot;line-height: 18px&quot;&gt;&lt;font face=&quot;helvetica&quot;&gt;旧尾==新头&lt;/font&gt;&lt;/div&gt;" style="shape=ext;rounded=1;html=1;whiteSpace=wrap;dashed=1;dashPattern=1 4;sketch=1;strokeColor=#FF6392;fillColor=#FFE45E;fontSize=17;fontColor=#5AA9E6;" vertex="1" parent="1">
          <mxGeometry x="870" y="100" width="110" height="40" as="geometry" />
        </mxCell>
        <mxCell id="6GWNNWpkVCc8jNCQC1K5-24" value="" style="edgeStyle=orthogonalEdgeStyle;curved=0;rounded=1;sketch=1;orthogonalLoop=1;jettySize=auto;html=1;strokeColor=#FF6392;fillColor=#FFE45E;fontSize=17;fontColor=#5AA9E6;" edge="1" parent="1" source="6GWNNWpkVCc8jNCQC1K5-21" target="6GWNNWpkVCc8jNCQC1K5-23">
          <mxGeometry relative="1" as="geometry" />
        </mxCell>
        <mxCell id="6GWNNWpkVCc8jNCQC1K5-21" value="&lt;div style=&quot;line-height: 18px&quot;&gt;&lt;font face=&quot;helvetica&quot;&gt;key对比查找&lt;/font&gt;&lt;/div&gt;" style="shape=ext;rounded=1;html=1;whiteSpace=wrap;dashed=1;dashPattern=1 4;sketch=1;strokeColor=#FF6392;fillColor=#FFE45E;fontSize=17;fontColor=#5AA9E6;" vertex="1" parent="1">
          <mxGeometry x="870" y="250" width="110" height="40" as="geometry" />
        </mxCell>
        <mxCell id="6GWNNWpkVCc8jNCQC1K5-26" value="" style="edgeStyle=orthogonalEdgeStyle;curved=0;rounded=1;sketch=1;orthogonalLoop=1;jettySize=auto;html=1;strokeColor=#FF6392;fillColor=#FFE45E;fontSize=17;fontColor=#5AA9E6;" edge="1" parent="1" source="6GWNNWpkVCc8jNCQC1K5-23" target="6GWNNWpkVCc8jNCQC1K5-25">
          <mxGeometry relative="1" as="geometry" />
        </mxCell>
        <mxCell id="6GWNNWpkVCc8jNCQC1K5-23" value="&lt;div style=&quot;line-height: 18px&quot;&gt;&lt;font face=&quot;helvetica&quot;&gt;循环结束&lt;/font&gt;&lt;/div&gt;" style="shape=ext;rounded=1;html=1;whiteSpace=wrap;dashed=1;dashPattern=1 4;sketch=1;strokeColor=#FF6392;fillColor=#FFE45E;fontSize=17;fontColor=#5AA9E6;" vertex="1" parent="1">
          <mxGeometry x="610" y="245" width="110" height="50" as="geometry" />
        </mxCell>
        <mxCell id="6GWNNWpkVCc8jNCQC1K5-25" value="&lt;div style=&quot;line-height: 18px&quot;&gt;&lt;font face=&quot;helvetica&quot;&gt;处理剩下的节点&lt;/font&gt;&lt;/div&gt;" style="shape=ext;rounded=1;html=1;whiteSpace=wrap;dashed=1;dashPattern=1 4;sketch=1;strokeColor=#FF6392;fillColor=#FFE45E;fontSize=17;fontColor=#5AA9E6;" vertex="1" parent="1">
          <mxGeometry x="590" y="390" width="150" height="40" as="geometry" />
        </mxCell>
      </root>
    </mxGraphModel>
  </diagram>
</mxfile>
